# MagicaVoxel @ Ephtracy

# group
o 

# material
mtllib Glider.mtl
usemtl palette

# normals
vn -1 0 0
vn 1 0 0
vn 0 0 1
vn 0 0 -1
vn 0 -1 0
vn 0 1 0

# texcoords
vt 0.0214844 0.5
vt 0.841797 0.5
vt 0.958984 0.5

# verts
v -1 1.8 -1
v -1 1.8 -1.1
v -1 1.9 -0.9
v -1 1.9 -1
v -1 2 -0.9
v -1 2 -1.1
v -0.9 1.9 -0.7
v -0.9 1.9 -0.9
v -0.9 2 -0.7
v -0.9 2 -0.9
v -0.8 1.8 -0.6
v -0.8 1.8 -0.7
v -0.8 1.9 -0.5
v -0.8 1.9 -0.6
v -0.8 1.9 -0.7
v -0.8 2 -0.5
v -0.8 2 -0.7
v -0.7 1.8 -0.4
v -0.7 1.8 -0.5
v -0.7 1.9 -0.3
v -0.7 1.9 -0.4
v -0.7 1.9 -0.5
v -0.7 2 -0.3
v -0.7 2 -0.5
v -0.6 1.8 -0.2
v -0.6 1.8 -0.3
v -0.6 1.9 -0.1
v -0.6 1.9 -0.2
v -0.6 1.9 -0.3
v -0.6 2 -0.1
v -0.6 2 -0.3
v -0.5 1.8 0
v -0.5 1.8 -0.1
v -0.5 1.9 0.2
v -0.5 1.9 0
v -0.5 1.9 -0.1
v -0.5 2 0.2
v -0.5 2 -0.1
v -0.4 1.9 0.4
v -0.4 1.9 0.2
v -0.4 2 0.4
v -0.4 2 0.2
v -0.3 1.9 0.6
v -0.3 1.9 0.4
v -0.3 2 0.6
v -0.3 2 0.4
v -0.2 1.8 0.7
v -0.2 1.8 0.6
v -0.2 1.9 0.8
v -0.2 1.9 0.7
v -0.2 1.9 0.6
v -0.2 2 0.8
v -0.2 2 0.6
v -0.1 1.8 1
v -0.1 1.8 0.9
v -0.1 1.9 0.9
v -0.1 1.9 0.8
v -0.1 2 1
v -0.1 2 0.8
v 0.1 1.8 0.7
v 0.1 1.8 0.6
v 0.1 1.9 0.7
v 0.1 1.9 0.6
v 0.2 1.8 0.5
v 0.2 1.8 0.4
v 0.2 1.9 0.5
v 0.2 1.9 0.4
v 0.3 1.8 0.3
v 0.3 1.8 0.2
v 0.3 1.9 0.3
v 0.3 1.9 0.2
v 0.4 1.8 0
v 0.4 1.8 -0.1
v 0.4 1.9 0
v 0.4 1.9 -0.1
v 0.5 1.8 -0.2
v 0.5 1.8 -0.3
v 0.5 1.9 -0.2
v 0.5 1.9 -0.3
v 0.6 1.8 -0.4
v 0.6 1.8 -0.5
v 0.6 1.9 -0.4
v 0.6 1.9 -0.5
v 0.7 1.8 -0.6
v 0.7 1.8 -0.7
v 0.7 1.9 -0.6
v 0.7 1.9 -0.7
v 0.9 1.8 -1
v 0.9 1.8 -1.1
v 0.9 1.9 -1
v 0.9 1.9 -1.1
v -0.9 1.8 -1
v -0.9 1.8 -1.1
v -0.9 1.9 -1
v -0.9 1.9 -1.1
v -0.7 1.8 -0.6
v -0.7 1.8 -0.7
v -0.7 1.9 -0.6
v -0.7 1.9 -0.7
v -0.6 1.8 -0.4
v -0.6 1.8 -0.5
v -0.6 1.9 -0.4
v -0.6 1.9 -0.5
v -0.5 1.8 -0.2
v -0.5 1.8 -0.3
v -0.5 1.9 -0.2
v -0.5 1.9 -0.3
v -0.4 1.8 0
v -0.4 1.8 -0.1
v -0.4 1.9 0
v -0.4 1.9 -0.1
v -0.1 1.8 0.7
v -0.1 1.8 0.6
v -0.1 1.9 0.7
v -0.1 1.9 0.6
v 0 1.8 1
v 0 1.8 0.9
v 0 1.9 1
v 0 1.9 0.9
v 0.1 1.9 1
v 0.1 1.9 0.8
v 0.1 2 1
v 0.1 2 0.8
v 0.2 1.8 0.7
v 0.2 1.8 0.6
v 0.2 1.9 0.8
v 0.2 1.9 0.7
v 0.2 1.9 0.6
v 0.2 2 0.8
v 0.2 2 0.6
v 0.3 1.8 0.5
v 0.3 1.8 0.4
v 0.3 1.9 0.6
v 0.3 1.9 0.5
v 0.3 1.9 0.4
v 0.3 2 0.6
v 0.3 2 0.4
v 0.4 1.8 0.3
v 0.4 1.8 0.2
v 0.4 1.9 0.4
v 0.4 1.9 0.3
v 0.4 1.9 0.2
v 0.4 2 0.4
v 0.4 2 0.2
v 0.5 1.8 0
v 0.5 1.8 -0.1
v 0.5 1.9 0.2
v 0.5 1.9 0
v 0.5 1.9 -0.1
v 0.5 2 0.2
v 0.5 2 -0.1
v 0.6 1.8 -0.2
v 0.6 1.8 -0.3
v 0.6 1.9 -0.1
v 0.6 1.9 -0.2
v 0.6 1.9 -0.3
v 0.6 2 -0.1
v 0.6 2 -0.3
v 0.7 1.8 -0.4
v 0.7 1.8 -0.5
v 0.7 1.9 -0.3
v 0.7 1.9 -0.4
v 0.7 1.9 -0.5
v 0.7 2 -0.3
v 0.7 2 -0.5
v 0.8 1.8 -0.6
v 0.8 1.8 -0.7
v 0.8 1.9 -0.5
v 0.8 1.9 -0.6
v 0.8 1.9 -0.7
v 0.8 2 -0.5
v 0.8 2 -0.7
v 0.9 1.9 -0.7
v 0.9 1.9 -0.9
v 0.9 2 -0.7
v 0.9 2 -0.9
v 1 1.8 -1
v 1 1.8 -1.1
v 1 1.9 -0.9
v 1 1.9 -1
v 1 2 -0.9
v 1 2 -1.1
v -0.1 1.8 1
v -0.1 2 1
v 0 1.8 1
v 0 1.9 1
v 0.1 1.9 1
v 0.1 2 1
v -0.2 1.9 0.8
v -0.2 2 0.8
v -0.1 1.9 0.8
v -0.1 2 0.8
v 0.1 1.9 0.8
v 0.1 2 0.8
v 0.2 1.9 0.8
v 0.2 2 0.8
v -0.2 1.8 0.7
v -0.2 1.9 0.7
v -0.1 1.8 0.7
v -0.1 1.9 0.7
v 0.1 1.8 0.7
v 0.1 1.9 0.7
v 0.2 1.8 0.7
v 0.2 1.9 0.7
v -0.3 1.9 0.6
v -0.3 2 0.6
v -0.2 1.9 0.6
v -0.2 2 0.6
v 0.2 1.9 0.6
v 0.2 2 0.6
v 0.3 1.9 0.6
v 0.3 2 0.6
v 0.2 1.8 0.5
v 0.2 1.9 0.5
v 0.3 1.8 0.5
v 0.3 1.9 0.5
v -0.4 1.9 0.4
v -0.4 2 0.4
v -0.3 1.9 0.4
v -0.3 2 0.4
v 0.3 1.9 0.4
v 0.3 2 0.4
v 0.4 1.9 0.4
v 0.4 2 0.4
v 0.3 1.8 0.3
v 0.3 1.9 0.3
v 0.4 1.8 0.3
v 0.4 1.9 0.3
v -0.5 1.9 0.2
v -0.5 2 0.2
v -0.4 1.9 0.2
v -0.4 2 0.2
v 0.4 1.9 0.2
v 0.4 2 0.2
v 0.5 1.9 0.2
v 0.5 2 0.2
v -0.5 1.8 0
v -0.5 1.9 0
v -0.4 1.8 0
v -0.4 1.9 0
v 0.4 1.8 0
v 0.4 1.9 0
v 0.5 1.8 0
v 0.5 1.9 0
v -0.6 1.9 -0.1
v -0.6 2 -0.1
v -0.5 1.9 -0.1
v -0.5 2 -0.1
v 0.5 1.9 -0.1
v 0.5 2 -0.1
v 0.6 1.9 -0.1
v 0.6 2 -0.1
v -0.6 1.8 -0.2
v -0.6 1.9 -0.2
v -0.5 1.8 -0.2
v -0.5 1.9 -0.2
v 0.5 1.8 -0.2
v 0.5 1.9 -0.2
v 0.6 1.8 -0.2
v 0.6 1.9 -0.2
v -0.7 1.9 -0.3
v -0.7 2 -0.3
v -0.6 1.9 -0.3
v -0.6 2 -0.3
v 0.6 1.9 -0.3
v 0.6 2 -0.3
v 0.7 1.9 -0.3
v 0.7 2 -0.3
v -0.7 1.8 -0.4
v -0.7 1.9 -0.4
v -0.6 1.8 -0.4
v -0.6 1.9 -0.4
v 0.6 1.8 -0.4
v 0.6 1.9 -0.4
v 0.7 1.8 -0.4
v 0.7 1.9 -0.4
v -0.8 1.9 -0.5
v -0.8 2 -0.5
v -0.7 1.9 -0.5
v -0.7 2 -0.5
v 0.7 1.9 -0.5
v 0.7 2 -0.5
v 0.8 1.9 -0.5
v 0.8 2 -0.5
v -0.8 1.8 -0.6
v -0.8 1.9 -0.6
v -0.7 1.8 -0.6
v -0.7 1.9 -0.6
v 0.7 1.8 -0.6
v 0.7 1.9 -0.6
v 0.8 1.8 -0.6
v 0.8 1.9 -0.6
v -0.9 1.9 -0.7
v -0.9 2 -0.7
v -0.8 1.9 -0.7
v -0.8 2 -0.7
v 0.8 1.9 -0.7
v 0.8 2 -0.7
v 0.9 1.9 -0.7
v 0.9 2 -0.7
v -1 1.9 -0.9
v -1 2 -0.9
v -0.9 1.9 -0.9
v -0.9 2 -0.9
v 0.9 1.9 -0.9
v 0.9 2 -0.9
v 1 1.9 -0.9
v 1 2 -0.9
v -1 1.8 -1
v -1 1.9 -1
v -0.9 1.8 -1
v -0.9 1.9 -1
v 0.9 1.8 -1
v 0.9 1.9 -1
v 1 1.8 -1
v 1 1.9 -1
v -0.1 1.8 0.9
v -0.1 1.9 0.9
v 0 1.8 0.9
v 0 1.9 0.9
v -0.2 1.8 0.6
v -0.2 1.9 0.6
v -0.1 1.8 0.6
v -0.1 1.9 0.6
v 0.1 1.8 0.6
v 0.1 1.9 0.6
v 0.2 1.8 0.6
v 0.2 1.9 0.6
v 0.2 1.8 0.4
v 0.2 1.9 0.4
v 0.3 1.8 0.4
v 0.3 1.9 0.4
v 0.3 1.8 0.2
v 0.3 1.9 0.2
v 0.4 1.8 0.2
v 0.4 1.9 0.2
v -0.5 1.8 -0.1
v -0.5 1.9 -0.1
v -0.4 1.8 -0.1
v -0.4 1.9 -0.1
v 0.4 1.8 -0.1
v 0.4 1.9 -0.1
v 0.5 1.8 -0.1
v 0.5 1.9 -0.1
v -0.6 1.8 -0.3
v -0.6 1.9 -0.3
v -0.5 1.8 -0.3
v -0.5 1.9 -0.3
v 0.5 1.8 -0.3
v 0.5 1.9 -0.3
v 0.6 1.8 -0.3
v 0.6 1.9 -0.3
v -0.7 1.8 -0.5
v -0.7 1.9 -0.5
v -0.6 1.8 -0.5
v -0.6 1.9 -0.5
v 0.6 1.8 -0.5
v 0.6 1.9 -0.5
v 0.7 1.8 -0.5
v 0.7 1.9 -0.5
v -0.8 1.8 -0.7
v -0.8 1.9 -0.7
v -0.7 1.8 -0.7
v -0.7 1.9 -0.7
v 0.7 1.8 -0.7
v 0.7 1.9 -0.7
v 0.8 1.8 -0.7
v 0.8 1.9 -0.7
v -1 1.8 -1.1
v -1 2 -1.1
v -0.9 1.8 -1.1
v -0.9 1.9 -1.1
v 0.9 1.8 -1.1
v 0.9 1.9 -1.1
v 1 1.8 -1.1
v 1 2 -1.1
v -0.1 1.8 1
v 0 1.8 1
v -0.1 1.8 0.9
v 0 1.8 0.9
v -0.2 1.8 0.7
v -0.1 1.8 0.7
v 0.1 1.8 0.7
v 0.2 1.8 0.7
v -0.2 1.8 0.6
v -0.1 1.8 0.6
v 0.1 1.8 0.6
v 0.2 1.8 0.6
v 0.2 1.8 0.5
v 0.3 1.8 0.5
v 0.2 1.8 0.4
v 0.3 1.8 0.4
v 0.3 1.8 0.3
v 0.4 1.8 0.3
v 0.3 1.8 0.2
v 0.4 1.8 0.2
v -0.5 1.8 0
v -0.4 1.8 0
v 0.4 1.8 0
v 0.5 1.8 0
v -0.5 1.8 -0.1
v -0.4 1.8 -0.1
v 0.4 1.8 -0.1
v 0.5 1.8 -0.1
v -0.6 1.8 -0.2
v -0.5 1.8 -0.2
v 0.5 1.8 -0.2
v 0.6 1.8 -0.2
v -0.6 1.8 -0.3
v -0.5 1.8 -0.3
v 0.5 1.8 -0.3
v 0.6 1.8 -0.3
v -0.7 1.8 -0.4
v -0.6 1.8 -0.4
v 0.6 1.8 -0.4
v 0.7 1.8 -0.4
v -0.7 1.8 -0.5
v -0.6 1.8 -0.5
v 0.6 1.8 -0.5
v 0.7 1.8 -0.5
v -0.8 1.8 -0.6
v -0.7 1.8 -0.6
v 0.7 1.8 -0.6
v 0.8 1.8 -0.6
v -0.8 1.8 -0.7
v -0.7 1.8 -0.7
v 0.7 1.8 -0.7
v 0.8 1.8 -0.7
v -1 1.8 -1
v -0.9 1.8 -1
v 0.9 1.8 -1
v 1 1.8 -1
v -1 1.8 -1.1
v -0.9 1.8 -1.1
v 0.9 1.8 -1.1
v 1 1.8 -1.1
v 0 1.9 1
v 0.1 1.9 1
v -0.1 1.9 0.9
v 0 1.9 0.9
v -0.2 1.9 0.8
v -0.1 1.9 0.8
v 0.1 1.9 0.8
v 0.2 1.9 0.8
v -0.2 1.9 0.7
v -0.1 1.9 0.7
v 0.1 1.9 0.7
v 0.2 1.9 0.7
v -0.3 1.9 0.6
v -0.2 1.9 0.6
v -0.1 1.9 0.6
v 0.1 1.9 0.6
v 0.2 1.9 0.6
v 0.3 1.9 0.6
v 0.2 1.9 0.5
v 0.3 1.9 0.5
v -0.4 1.9 0.4
v -0.3 1.9 0.4
v -0.2 1.9 0.4
v -0.1 1.9 0.4
v 0.1 1.9 0.4
v 0.2 1.9 0.4
v 0.3 1.9 0.4
v 0.4 1.9 0.4
v 0.3 1.9 0.3
v 0.4 1.9 0.3
v -0.5 1.9 0.2
v -0.4 1.9 0.2
v -0.3 1.9 0.2
v -0.2 1.9 0.2
v 0.2 1.9 0.2
v 0.3 1.9 0.2
v 0.4 1.9 0.2
v 0.5 1.9 0.2
v -0.5 1.9 0
v -0.4 1.9 0
v 0.4 1.9 0
v 0.5 1.9 0
v -0.6 1.9 -0.1
v -0.5 1.9 -0.1
v -0.4 1.9 -0.1
v -0.3 1.9 -0.1
v 0.3 1.9 -0.1
v 0.4 1.9 -0.1
v 0.5 1.9 -0.1
v 0.6 1.9 -0.1
v -0.6 1.9 -0.2
v -0.5 1.9 -0.2
v 0.5 1.9 -0.2
v 0.6 1.9 -0.2
v -0.7 1.9 -0.3
v -0.6 1.9 -0.3
v -0.5 1.9 -0.3
v -0.4 1.9 -0.3
v 0.4 1.9 -0.3
v 0.5 1.9 -0.3
v 0.6 1.9 -0.3
v 0.7 1.9 -0.3
v -0.7 1.9 -0.4
v -0.6 1.9 -0.4
v 0.6 1.9 -0.4
v 0.7 1.9 -0.4
v -0.8 1.9 -0.5
v -0.7 1.9 -0.5
v -0.6 1.9 -0.5
v -0.5 1.9 -0.5
v 0.5 1.9 -0.5
v 0.6 1.9 -0.5
v 0.7 1.9 -0.5
v 0.8 1.9 -0.5
v -0.8 1.9 -0.6
v -0.7 1.9 -0.6
v 0.7 1.9 -0.6
v 0.8 1.9 -0.6
v -0.9 1.9 -0.7
v -0.8 1.9 -0.7
v -0.7 1.9 -0.7
v -0.6 1.9 -0.7
v 0.6 1.9 -0.7
v 0.7 1.9 -0.7
v 0.8 1.9 -0.7
v 0.9 1.9 -0.7
v -1 1.9 -0.9
v -0.9 1.9 -0.9
v -0.8 1.9 -0.9
v -0.7 1.9 -0.9
v 0.7 1.9 -0.9
v 0.8 1.9 -0.9
v 0.9 1.9 -0.9
v 1 1.9 -0.9
v -1 1.9 -1
v -0.9 1.9 -1
v 0.9 1.9 -1
v 1 1.9 -1
v -0.9 1.9 -1.1
v 0.9 1.9 -1.1
v -0.1 2 1
v 0.1 2 1
v -0.2 2 0.8
v -0.1 2 0.8
v 0.1 2 0.8
v 0.2 2 0.8
v -0.3 2 0.6
v -0.2 2 0.6
v -0.1 2 0.6
v 0.1 2 0.6
v 0.2 2 0.6
v 0.3 2 0.6
v -0.4 2 0.4
v -0.3 2 0.4
v -0.2 2 0.4
v -0.1 2 0.4
v 0.1 2 0.4
v 0.2 2 0.4
v 0.3 2 0.4
v 0.4 2 0.4
v -0.5 2 0.2
v -0.4 2 0.2
v -0.3 2 0.2
v -0.2 2 0.2
v 0.2 2 0.2
v 0.3 2 0.2
v 0.4 2 0.2
v 0.5 2 0.2
v -0.6 2 -0.1
v -0.5 2 -0.1
v -0.4 2 -0.1
v -0.3 2 -0.1
v 0.3 2 -0.1
v 0.4 2 -0.1
v 0.5 2 -0.1
v 0.6 2 -0.1
v -0.7 2 -0.3
v -0.6 2 -0.3
v -0.5 2 -0.3
v -0.4 2 -0.3
v 0.4 2 -0.3
v 0.5 2 -0.3
v 0.6 2 -0.3
v 0.7 2 -0.3
v -0.8 2 -0.5
v -0.7 2 -0.5
v -0.6 2 -0.5
v -0.5 2 -0.5
v 0.5 2 -0.5
v 0.6 2 -0.5
v 0.7 2 -0.5
v 0.8 2 -0.5
v -0.9 2 -0.7
v -0.8 2 -0.7
v -0.7 2 -0.7
v -0.6 2 -0.7
v 0.6 2 -0.7
v 0.7 2 -0.7
v 0.8 2 -0.7
v 0.9 2 -0.7
v -1 2 -0.9
v -0.9 2 -0.9
v -0.8 2 -0.9
v -0.7 2 -0.9
v 0.7 2 -0.9
v 0.8 2 -0.9
v 0.9 2 -0.9
v 1 2 -0.9
v -1 2 -1.1
v 1 2 -1.1

# faces
f 4/3/1 2/3/1 1/3/1
f 5/3/1 4/3/1 3/3/1
f 6/3/1 2/3/1 4/3/1
f 6/3/1 4/3/1 5/3/1
f 9/3/1 8/3/1 7/3/1
f 10/3/1 8/3/1 9/3/1
f 14/2/1 12/2/1 11/2/1
f 15/2/1 12/2/1 14/2/1
f 16/3/1 14/3/1 13/3/1
f 16/3/1 15/3/1 14/3/1
f 17/3/1 15/3/1 16/3/1
f 21/2/1 19/2/1 18/2/1
f 22/2/1 19/2/1 21/2/1
f 23/3/1 21/3/1 20/3/1
f 23/3/1 22/3/1 21/3/1
f 24/3/1 22/3/1 23/3/1
f 28/2/1 26/2/1 25/2/1
f 29/2/1 26/2/1 28/2/1
f 30/3/1 28/3/1 27/3/1
f 30/3/1 29/3/1 28/3/1
f 31/3/1 29/3/1 30/3/1
f 35/2/1 33/2/1 32/2/1
f 36/2/1 33/2/1 35/2/1
f 37/3/1 35/3/1 34/3/1
f 37/3/1 36/3/1 35/3/1
f 38/3/1 36/3/1 37/3/1
f 41/3/1 40/3/1 39/3/1
f 42/3/1 40/3/1 41/3/1
f 45/3/1 44/3/1 43/3/1
f 46/3/1 44/3/1 45/3/1
f 50/2/1 48/2/1 47/2/1
f 51/2/1 48/2/1 50/2/1
f 52/3/1 50/3/1 49/3/1
f 52/3/1 51/3/1 50/3/1
f 53/3/1 51/3/1 52/3/1
f 56/3/1 55/3/1 54/3/1
f 58/3/1 56/3/1 54/3/1
f 58/3/1 57/3/1 56/3/1
f 59/3/1 57/3/1 58/3/1
f 62/2/1 61/2/1 60/2/1
f 63/2/1 61/2/1 62/2/1
f 66/2/1 65/2/1 64/2/1
f 67/2/1 65/2/1 66/2/1
f 70/2/1 69/2/1 68/2/1
f 71/2/1 69/2/1 70/2/1
f 74/2/1 73/2/1 72/2/1
f 75/2/1 73/2/1 74/2/1
f 78/2/1 77/2/1 76/2/1
f 79/2/1 77/2/1 78/2/1
f 82/2/1 81/2/1 80/2/1
f 83/2/1 81/2/1 82/2/1
f 86/2/1 85/2/1 84/2/1
f 87/2/1 85/2/1 86/2/1
f 90/3/1 89/3/1 88/3/1
f 91/3/1 89/3/1 90/3/1
f 92/3/2 93/3/2 94/3/2
f 94/3/2 93/3/2 95/3/2
f 96/2/2 97/2/2 98/2/2
f 98/2/2 97/2/2 99/2/2
f 100/2/2 101/2/2 102/2/2
f 102/2/2 101/2/2 103/2/2
f 104/2/2 105/2/2 106/2/2
f 106/2/2 105/2/2 107/2/2
f 108/2/2 109/2/2 110/2/2
f 110/2/2 109/2/2 111/2/2
f 112/2/2 113/2/2 114/2/2
f 114/2/2 113/2/2 115/2/2
f 116/3/2 117/3/2 118/3/2
f 118/3/2 117/3/2 119/3/2
f 120/3/2 121/3/2 122/3/2
f 122/3/2 121/3/2 123/3/2
f 124/2/2 125/2/2 127/2/2
f 127/2/2 125/2/2 128/2/2
f 126/3/2 127/3/2 129/3/2
f 127/3/2 128/3/2 129/3/2
f 129/3/2 128/3/2 130/3/2
f 131/2/2 132/2/2 134/2/2
f 134/2/2 132/2/2 135/2/2
f 133/3/2 134/3/2 136/3/2
f 134/3/2 135/3/2 136/3/2
f 136/3/2 135/3/2 137/3/2
f 138/2/2 139/2/2 141/2/2
f 141/2/2 139/2/2 142/2/2
f 140/3/2 141/3/2 143/3/2
f 141/3/2 142/3/2 143/3/2
f 143/3/2 142/3/2 144/3/2
f 145/2/2 146/2/2 148/2/2
f 148/2/2 146/2/2 149/2/2
f 147/3/2 148/3/2 150/3/2
f 148/3/2 149/3/2 150/3/2
f 150/3/2 149/3/2 151/3/2
f 152/2/2 153/2/2 155/2/2
f 155/2/2 153/2/2 156/2/2
f 154/3/2 155/3/2 157/3/2
f 155/3/2 156/3/2 157/3/2
f 157/3/2 156/3/2 158/3/2
f 159/2/2 160/2/2 162/2/2
f 162/2/2 160/2/2 163/2/2
f 161/3/2 162/3/2 164/3/2
f 162/3/2 163/3/2 164/3/2
f 164/3/2 163/3/2 165/3/2
f 166/2/2 167/2/2 169/2/2
f 169/2/2 167/2/2 170/2/2
f 168/3/2 169/3/2 171/3/2
f 169/3/2 170/3/2 171/3/2
f 171/3/2 170/3/2 172/3/2
f 173/3/2 174/3/2 175/3/2
f 175/3/2 174/3/2 176/3/2
f 177/3/2 178/3/2 180/3/2
f 179/3/2 180/3/2 181/3/2
f 180/3/2 178/3/2 182/3/2
f 181/3/2 180/3/2 182/3/2
f 185/3/3 184/3/3 183/3/3
f 186/3/3 184/3/3 185/3/3
f 187/3/3 184/3/3 186/3/3
f 188/3/3 184/3/3 187/3/3
f 191/3/3 190/3/3 189/3/3
f 192/3/3 190/3/3 191/3/3
f 195/3/3 194/3/3 193/3/3
f 196/3/3 194/3/3 195/3/3
f 199/2/3 198/2/3 197/2/3
f 200/2/3 198/2/3 199/2/3
f 203/2/3 202/2/3 201/2/3
f 204/2/3 202/2/3 203/2/3
f 207/3/3 206/3/3 205/3/3
f 208/3/3 206/3/3 207/3/3
f 211/3/3 210/3/3 209/3/3
f 212/3/3 210/3/3 211/3/3
f 215/2/3 214/2/3 213/2/3
f 216/2/3 214/2/3 215/2/3
f 219/3/3 218/3/3 217/3/3
f 220/3/3 218/3/3 219/3/3
f 223/3/3 222/3/3 221/3/3
f 224/3/3 222/3/3 223/3/3
f 227/2/3 226/2/3 225/2/3
f 228/2/3 226/2/3 227/2/3
f 231/3/3 230/3/3 229/3/3
f 232/3/3 230/3/3 231/3/3
f 235/3/3 234/3/3 233/3/3
f 236/3/3 234/3/3 235/3/3
f 239/2/3 238/2/3 237/2/3
f 240/2/3 238/2/3 239/2/3
f 243/2/3 242/2/3 241/2/3
f 244/2/3 242/2/3 243/2/3
f 247/3/3 246/3/3 245/3/3
f 248/3/3 246/3/3 247/3/3
f 251/3/3 250/3/3 249/3/3
f 252/3/3 250/3/3 251/3/3
f 255/2/3 254/2/3 253/2/3
f 256/2/3 254/2/3 255/2/3
f 259/2/3 258/2/3 257/2/3
f 260/2/3 258/2/3 259/2/3
f 263/3/3 262/3/3 261/3/3
f 264/3/3 262/3/3 263/3/3
f 267/3/3 266/3/3 265/3/3
f 268/3/3 266/3/3 267/3/3
f 271/2/3 270/2/3 269/2/3
f 272/2/3 270/2/3 271/2/3
f 275/2/3 274/2/3 273/2/3
f 276/2/3 274/2/3 275/2/3
f 279/3/3 278/3/3 277/3/3
f 280/3/3 278/3/3 279/3/3
f 283/3/3 282/3/3 281/3/3
f 284/3/3 282/3/3 283/3/3
f 287/2/3 286/2/3 285/2/3
f 288/2/3 286/2/3 287/2/3
f 291/2/3 290/2/3 289/2/3
f 292/2/3 290/2/3 291/2/3
f 295/3/3 294/3/3 293/3/3
f 296/3/3 294/3/3 295/3/3
f 299/3/3 298/3/3 297/3/3
f 300/3/3 298/3/3 299/3/3
f 303/3/3 302/3/3 301/3/3
f 304/3/3 302/3/3 303/3/3
f 307/3/3 306/3/3 305/3/3
f 308/3/3 306/3/3 307/3/3
f 311/3/3 310/3/3 309/3/3
f 312/3/3 310/3/3 311/3/3
f 315/3/3 314/3/3 313/3/3
f 316/3/3 314/3/3 315/3/3
f 317/3/4 318/3/4 319/3/4
f 319/3/4 318/3/4 320/3/4
f 321/2/4 322/2/4 323/2/4
f 323/2/4 322/2/4 324/2/4
f 325/2/4 326/2/4 327/2/4
f 327/2/4 326/2/4 328/2/4
f 329/2/4 330/2/4 331/2/4
f 331/2/4 330/2/4 332/2/4
f 333/2/4 334/2/4 335/2/4
f 335/2/4 334/2/4 336/2/4
f 337/2/4 338/2/4 339/2/4
f 339/2/4 338/2/4 340/2/4
f 341/2/4 342/2/4 343/2/4
f 343/2/4 342/2/4 344/2/4
f 345/2/4 346/2/4 347/2/4
f 347/2/4 346/2/4 348/2/4
f 349/2/4 350/2/4 351/2/4
f 351/2/4 350/2/4 352/2/4
f 353/2/4 354/2/4 355/2/4
f 355/2/4 354/2/4 356/2/4
f 357/2/4 358/2/4 359/2/4
f 359/2/4 358/2/4 360/2/4
f 361/2/4 362/2/4 363/2/4
f 363/2/4 362/2/4 364/2/4
f 365/2/4 366/2/4 367/2/4
f 367/2/4 366/2/4 368/2/4
f 369/3/4 370/3/4 371/3/4
f 371/3/4 370/3/4 372/3/4
f 372/3/4 370/3/4 374/3/4
f 373/3/4 374/3/4 375/3/4
f 374/3/4 370/3/4 376/3/4
f 375/3/4 374/3/4 376/3/4
f 379/3/5 378/3/5 377/3/5
f 380/3/5 378/3/5 379/3/5
f 385/2/5 382/2/5 381/2/5
f 386/2/5 382/2/5 385/2/5
f 387/2/5 384/2/5 383/2/5
f 388/2/5 384/2/5 387/2/5
f 391/2/5 390/2/5 389/2/5
f 392/2/5 390/2/5 391/2/5
f 395/2/5 394/2/5 393/2/5
f 396/2/5 394/2/5 395/2/5
f 401/2/5 398/2/5 397/2/5
f 402/2/5 398/2/5 401/2/5
f 403/2/5 400/2/5 399/2/5
f 404/2/5 400/2/5 403/2/5
f 409/2/5 406/2/5 405/2/5
f 410/2/5 406/2/5 409/2/5
f 411/2/5 408/2/5 407/2/5
f 412/2/5 408/2/5 411/2/5
f 417/2/5 414/2/5 413/2/5
f 418/2/5 414/2/5 417/2/5
f 419/2/5 416/2/5 415/2/5
f 420/2/5 416/2/5 419/2/5
f 425/2/5 422/2/5 421/2/5
f 426/2/5 422/2/5 425/2/5
f 427/2/5 424/2/5 423/2/5
f 428/2/5 424/2/5 427/2/5
f 433/3/5 430/3/5 429/3/5
f 434/3/5 430/3/5 433/3/5
f 435/3/5 432/3/5 431/3/5
f 436/3/5 432/3/5 435/3/5
f 440/3/5 438/3/5 437/3/5
f 442/3/5 440/3/5 439/3/5
f 443/3/5 438/3/5 440/3/5
f 443/3/5 440/3/5 442/3/5
f 445/3/5 442/3/5 441/3/5
f 446/2/5 443/2/5 442/2/5
f 446/3/5 442/3/5 445/3/5
f 447/3/5 444/3/5 443/3/5
f 447/2/5 443/2/5 446/2/5
f 448/3/5 444/3/5 447/3/5
f 451/2/5 447/2/5 446/2/5
f 452/2/5 447/2/5 451/2/5
f 455/2/5 453/2/5 452/2/5
f 455/3/5 454/3/5 453/3/5
f 456/3/5 454/3/5 455/3/5
f 458/3/5 450/3/5 449/3/5
f 459/2/5 451/2/5 450/2/5
f 459/3/5 450/3/5 458/3/5
f 460/1/5 452/1/5 451/1/5
f 460/2/5 451/2/5 459/2/5
f 461/2/5 455/2/5 452/2/5
f 461/1/5 452/1/5 460/1/5
f 462/2/5 455/2/5 461/2/5
f 465/2/5 463/2/5 462/2/5
f 465/3/5 464/3/5 463/3/5
f 466/3/5 464/3/5 465/3/5
f 468/3/5 458/3/5 457/3/5
f 469/2/5 459/2/5 458/2/5
f 469/3/5 458/3/5 468/3/5
f 470/1/5 462/1/5 461/1/5
f 470/2/5 459/2/5 469/2/5
f 470/1/5 460/1/5 459/1/5
f 470/1/5 461/1/5 460/1/5
f 471/2/5 465/2/5 462/2/5
f 471/1/5 462/1/5 470/1/5
f 472/2/5 465/2/5 471/2/5
f 475/3/5 468/3/5 467/3/5
f 476/2/5 469/2/5 468/2/5
f 476/3/5 468/3/5 475/3/5
f 477/3/5 474/3/5 473/3/5
f 477/2/5 473/2/5 472/2/5
f 478/3/5 474/3/5 477/3/5
f 481/2/5 469/2/5 476/2/5
f 482/1/5 470/1/5 469/1/5
f 482/1/5 471/1/5 470/1/5
f 482/2/5 469/2/5 481/2/5
f 482/1/5 472/1/5 471/1/5
f 483/2/5 477/2/5 472/2/5
f 483/1/5 472/1/5 482/1/5
f 484/2/5 477/2/5 483/2/5
f 487/3/5 480/3/5 479/3/5
f 488/2/5 481/2/5 480/2/5
f 488/3/5 480/3/5 487/3/5
f 489/3/5 486/3/5 485/3/5
f 489/2/5 485/2/5 484/2/5
f 490/3/5 486/3/5 489/3/5
f 493/2/5 481/2/5 488/2/5
f 494/1/5 482/1/5 481/1/5
f 494/1/5 483/1/5 482/1/5
f 494/2/5 481/2/5 493/2/5
f 494/1/5 484/1/5 483/1/5
f 495/2/5 489/2/5 484/2/5
f 495/1/5 484/1/5 494/1/5
f 496/2/5 489/2/5 495/2/5
f 499/3/5 492/3/5 491/3/5
f 500/2/5 493/2/5 492/2/5
f 500/3/5 492/3/5 499/3/5
f 501/3/5 498/3/5 497/3/5
f 501/2/5 497/2/5 496/2/5
f 502/3/5 498/3/5 501/3/5
f 505/2/5 493/2/5 500/2/5
f 506/1/5 494/1/5 493/1/5
f 506/1/5 495/1/5 494/1/5
f 506/2/5 493/2/5 505/2/5
f 506/1/5 496/1/5 495/1/5
f 507/2/5 501/2/5 496/2/5
f 507/1/5 496/1/5 506/1/5
f 508/2/5 501/2/5 507/2/5
f 511/3/5 504/3/5 503/3/5
f 512/2/5 505/2/5 504/2/5
f 512/3/5 504/3/5 511/3/5
f 513/3/5 510/3/5 509/3/5
f 513/2/5 509/2/5 508/2/5
f 514/3/5 510/3/5 513/3/5
f 517/2/5 505/2/5 512/2/5
f 518/1/5 506/1/5 505/1/5
f 518/1/5 507/1/5 506/1/5
f 518/2/5 505/2/5 517/2/5
f 518/1/5 508/1/5 507/1/5
f 519/2/5 513/2/5 508/2/5
f 519/1/5 508/1/5 518/1/5
f 520/2/5 513/2/5 519/2/5
f 524/3/5 516/3/5 515/3/5
f 525/2/5 517/2/5 516/2/5
f 525/3/5 516/3/5 524/3/5
f 526/1/5 518/1/5 517/1/5
f 526/2/5 517/2/5 525/2/5
f 526/1/5 519/1/5 518/1/5
f 526/1/5 520/1/5 519/1/5
f 527/2/5 521/2/5 520/2/5
f 527/1/5 520/1/5 526/1/5
f 528/3/5 522/3/5 521/3/5
f 528/2/5 521/2/5 527/2/5
f 529/3/5 522/3/5 528/3/5
f 531/3/5 527/3/5 526/3/5
f 531/3/5 530/3/5 529/3/5
f 531/3/5 529/3/5 528/3/5
f 531/3/5 528/3/5 527/3/5
f 531/3/5 526/3/5 525/3/5
f 531/3/5 525/3/5 524/3/5
f 531/3/5 524/3/5 523/3/5
f 532/3/5 530/3/5 531/3/5
f 533/3/5 530/3/5 532/3/5
f 534/3/5 530/3/5 533/3/5
f 535/3/5 533/3/5 532/3/5
f 536/3/5 533/3/5 535/3/5
f 537/3/6 538/3/6 540/3/6
f 540/3/6 538/3/6 541/3/6
f 539/3/6 540/3/6 544/3/6
f 540/2/6 541/2/6 545/2/6
f 544/3/6 540/3/6 545/3/6
f 541/3/6 542/3/6 546/3/6
f 545/2/6 541/2/6 546/2/6
f 546/3/6 542/3/6 547/3/6
f 543/3/6 544/3/6 550/3/6
f 544/2/6 545/2/6 551/2/6
f 550/3/6 544/3/6 551/3/6
f 545/1/6 546/1/6 552/1/6
f 551/2/6 545/2/6 552/2/6
f 546/2/6 547/2/6 553/2/6
f 552/1/6 546/1/6 553/1/6
f 547/3/6 548/3/6 554/3/6
f 553/2/6 547/2/6 554/2/6
f 554/3/6 548/3/6 555/3/6
f 549/3/6 550/3/6 558/3/6
f 550/2/6 551/2/6 559/2/6
f 558/3/6 550/3/6 559/3/6
f 552/1/6 553/1/6 560/1/6
f 559/2/6 551/2/6 560/2/6
f 551/1/6 552/1/6 560/1/6
f 553/1/6 554/1/6 560/1/6
f 554/2/6 555/2/6 561/2/6
f 560/1/6 554/1/6 561/1/6
f 555/3/6 556/3/6 562/3/6
f 561/2/6 555/2/6 562/2/6
f 562/3/6 556/3/6 563/3/6
f 557/3/6 558/3/6 566/3/6
f 558/2/6 559/2/6 567/2/6
f 566/3/6 558/3/6 567/3/6
f 560/1/6 561/1/6 568/1/6
f 567/2/6 559/2/6 568/2/6
f 559/1/6 560/1/6 568/1/6
f 561/1/6 562/1/6 568/1/6
f 562/2/6 563/2/6 569/2/6
f 568/1/6 562/1/6 569/1/6
f 563/3/6 564/3/6 570/3/6
f 569/2/6 563/2/6 570/2/6
f 570/3/6 564/3/6 571/3/6
f 565/3/6 566/3/6 574/3/6
f 566/2/6 567/2/6 575/2/6
f 574/3/6 566/3/6 575/3/6
f 568/1/6 569/1/6 576/1/6
f 575/2/6 567/2/6 576/2/6
f 567/1/6 568/1/6 576/1/6
f 569/1/6 570/1/6 576/1/6
f 570/2/6 571/2/6 577/2/6
f 576/1/6 570/1/6 577/1/6
f 571/3/6 572/3/6 578/3/6
f 577/2/6 571/2/6 578/2/6
f 578/3/6 572/3/6 579/3/6
f 573/3/6 574/3/6 582/3/6
f 574/2/6 575/2/6 583/2/6
f 582/3/6 574/3/6 583/3/6
f 576/1/6 577/1/6 584/1/6
f 583/2/6 575/2/6 584/2/6
f 575/1/6 576/1/6 584/1/6
f 577/1/6 578/1/6 584/1/6
f 578/2/6 579/2/6 585/2/6
f 584/1/6 578/1/6 585/1/6
f 579/3/6 580/3/6 586/3/6
f 585/2/6 579/2/6 586/2/6
f 586/3/6 580/3/6 587/3/6
f 581/3/6 582/3/6 590/3/6
f 582/2/6 583/2/6 591/2/6
f 590/3/6 582/3/6 591/3/6
f 584/1/6 585/1/6 592/1/6
f 591/2/6 583/2/6 592/2/6
f 583/1/6 584/1/6 592/1/6
f 585/1/6 586/1/6 592/1/6
f 586/2/6 587/2/6 593/2/6
f 592/1/6 586/1/6 593/1/6
f 587/3/6 588/3/6 594/3/6
f 593/2/6 587/2/6 594/2/6
f 594/3/6 588/3/6 595/3/6
f 589/3/6 590/3/6 598/3/6
f 590/2/6 591/2/6 599/2/6
f 598/3/6 590/3/6 599/3/6
f 592/1/6 593/1/6 600/1/6
f 599/2/6 591/2/6 600/2/6
f 591/1/6 592/1/6 600/1/6
f 593/1/6 594/1/6 600/1/6
f 594/2/6 595/2/6 601/2/6
f 600/1/6 594/1/6 601/1/6
f 595/3/6 596/3/6 602/3/6
f 601/2/6 595/2/6 602/2/6
f 602/3/6 596/3/6 603/3/6
f 597/3/6 598/3/6 605/3/6
f 603/3/6 604/3/6 605/3/6
f 602/3/6 603/3/6 605/3/6
f 601/3/6 602/3/6 605/3/6
f 599/3/6 600/3/6 605/3/6
f 600/3/6 601/3/6 605/3/6
f 598/3/6 599/3/6 605/3/6
f 605/3/6 604/3/6 606/3/6
