# MagicaVoxel @ Ephtracy

# group
o 

# material
mtllib Missle.mtl
usemtl palette

# normals
vn -1 0 0
vn 1 0 0
vn 0 0 1
vn 0 0 -1
vn 0 -1 0
vn 0 1 0

# texcoords
vt 0.134766 0.5
vt 0.306641 0.5

# verts
v -0.3 2.1 0.3
v -0.3 2.1 0.2
v -0.3 2.1 0.1
v -0.3 2.4 0.3
v -0.3 2.4 0.2
v -0.3 2.4 0.1
v -0.2 2 0.2
v -0.2 2 0.1
v -0.2 2.1 0.4
v -0.2 2.1 0.3
v -0.2 2.1 0.2
v -0.2 2.1 0.1
v -0.2 2.4 0.4
v -0.2 2.4 0.3
v -0.2 2.4 0.2
v -0.2 2.4 0.1
v -0.2 2.5 0.2
v -0.2 2.5 0.1
v -0.1 2.2 0.5
v -0.1 2.2 0.4
v -0.1 2.2 0.1
v -0.1 2.2 -0.5
v -0.1 2.3 0.5
v -0.1 2.3 0.4
v -0.1 2.3 0.1
v -0.1 2.3 -0.5
v 0 2.2 0.5
v 0 2.2 0.4
v 0 2.2 0.1
v 0 2.2 -0.5
v 0 2.3 0.5
v 0 2.3 0.4
v 0 2.3 0.1
v 0 2.3 -0.5
v 0.1 2 0.2
v 0.1 2 0.1
v 0.1 2.1 0.4
v 0.1 2.1 0.3
v 0.1 2.1 0.2
v 0.1 2.1 0.1
v 0.1 2.4 0.4
v 0.1 2.4 0.3
v 0.1 2.4 0.2
v 0.1 2.4 0.1
v 0.1 2.5 0.2
v 0.1 2.5 0.1
v 0.2 2.1 0.3
v 0.2 2.1 0.2
v 0.2 2.1 0.1
v 0.2 2.4 0.3
v 0.2 2.4 0.2
v 0.2 2.4 0.1
v -0.1 2.2 0.5
v -0.1 2.3 0.5
v 0 2.2 0.5
v 0 2.3 0.5
v -0.2 2.1 0.4
v -0.2 2.4 0.4
v -0.1 2.2 0.4
v -0.1 2.3 0.4
v 0 2.2 0.4
v 0 2.3 0.4
v 0.1 2.1 0.4
v 0.1 2.4 0.4
v -0.3 2.1 0.3
v -0.3 2.4 0.3
v -0.2 2.1 0.3
v -0.2 2.4 0.3
v 0.1 2.1 0.3
v 0.1 2.4 0.3
v 0.2 2.1 0.3
v 0.2 2.4 0.3
v -0.2 2 0.2
v -0.2 2.1 0.2
v -0.2 2.4 0.2
v -0.2 2.5 0.2
v 0.1 2 0.2
v 0.1 2.1 0.2
v 0.1 2.4 0.2
v 0.1 2.5 0.2
v -0.3 2.1 0.1
v -0.3 2.4 0.1
v -0.2 2 0.1
v -0.2 2.1 0.1
v -0.2 2.4 0.1
v -0.2 2.5 0.1
v -0.1 2.2 0.1
v -0.1 2.3 0.1
v 0 2.2 0.1
v 0 2.3 0.1
v 0.1 2 0.1
v 0.1 2.1 0.1
v 0.1 2.4 0.1
v 0.1 2.5 0.1
v 0.2 2.1 0.1
v 0.2 2.4 0.1
v -0.1 2.2 -0.5
v -0.1 2.3 -0.5
v 0 2.2 -0.5
v 0 2.3 -0.5
v -0.2 2 0.2
v 0.1 2 0.2
v -0.2 2 0.1
v 0.1 2 0.1
v -0.2 2.1 0.4
v 0.1 2.1 0.4
v -0.3 2.1 0.3
v -0.2 2.1 0.3
v 0.1 2.1 0.3
v 0.2 2.1 0.3
v -0.3 2.1 0.2
v -0.2 2.1 0.2
v 0.1 2.1 0.2
v 0.2 2.1 0.2
v -0.3 2.1 0.1
v -0.2 2.1 0.1
v 0.1 2.1 0.1
v 0.2 2.1 0.1
v -0.1 2.2 0.5
v 0 2.2 0.5
v -0.1 2.2 0.4
v 0 2.2 0.4
v -0.1 2.2 0.1
v 0 2.2 0.1
v -0.1 2.2 -0.5
v 0 2.2 -0.5
v -0.1 2.3 0.5
v 0 2.3 0.5
v -0.1 2.3 0.4
v 0 2.3 0.4
v -0.1 2.3 0.1
v 0 2.3 0.1
v -0.1 2.3 -0.5
v 0 2.3 -0.5
v -0.2 2.4 0.4
v 0.1 2.4 0.4
v -0.3 2.4 0.3
v -0.2 2.4 0.3
v 0.1 2.4 0.3
v 0.2 2.4 0.3
v -0.3 2.4 0.2
v -0.2 2.4 0.2
v 0.1 2.4 0.2
v 0.2 2.4 0.2
v -0.3 2.4 0.1
v -0.2 2.4 0.1
v 0.1 2.4 0.1
v 0.2 2.4 0.1
v -0.2 2.5 0.2
v 0.1 2.5 0.2
v -0.2 2.5 0.1
v 0.1 2.5 0.1

# faces
f 4/1/1 2/1/1 1/1/1
f 5/2/1 3/2/1 2/2/1
f 5/1/1 2/1/1 4/1/1
f 6/2/1 3/2/1 5/2/1
f 11/1/1 8/1/1 7/1/1
f 12/1/1 8/1/1 11/1/1
f 13/2/1 10/2/1 9/2/1
f 14/2/1 10/2/1 13/2/1
f 17/1/1 16/1/1 15/1/1
f 18/1/1 16/1/1 17/1/1
f 23/1/1 20/1/1 19/1/1
f 24/1/1 20/1/1 23/1/1
f 25/2/1 22/2/1 21/2/1
f 26/2/1 22/2/1 25/2/1
f 27/1/2 28/1/2 31/1/2
f 31/1/2 28/1/2 32/1/2
f 29/2/2 30/2/2 33/2/2
f 33/2/2 30/2/2 34/2/2
f 35/1/2 36/1/2 39/1/2
f 39/1/2 36/1/2 40/1/2
f 37/2/2 38/2/2 41/2/2
f 41/2/2 38/2/2 42/2/2
f 43/1/2 44/1/2 45/1/2
f 45/1/2 44/1/2 46/1/2
f 47/1/2 48/1/2 50/1/2
f 48/2/2 49/2/2 51/2/2
f 50/1/2 48/1/2 51/1/2
f 51/2/2 49/2/2 52/2/2
f 55/1/3 54/1/3 53/1/3
f 56/1/3 54/1/3 55/1/3
f 59/2/3 58/2/3 57/2/3
f 60/2/3 58/2/3 59/2/3
f 61/2/3 59/2/3 57/2/3
f 62/2/3 58/2/3 60/2/3
f 63/2/3 61/2/3 57/2/3
f 63/2/3 62/2/3 61/2/3
f 64/2/3 58/2/3 62/2/3
f 64/2/3 62/2/3 63/2/3
f 67/1/3 66/1/3 65/1/3
f 68/1/3 66/1/3 67/1/3
f 71/1/3 70/1/3 69/1/3
f 72/1/3 70/1/3 71/1/3
f 77/1/3 74/1/3 73/1/3
f 78/1/3 74/1/3 77/1/3
f 79/1/3 76/1/3 75/1/3
f 80/1/3 76/1/3 79/1/3
f 81/2/4 82/2/4 84/2/4
f 84/2/4 82/2/4 85/2/4
f 84/2/4 85/2/4 87/2/4
f 87/2/4 85/2/4 88/2/4
f 84/2/4 87/2/4 89/2/4
f 88/2/4 85/2/4 90/2/4
f 83/1/4 84/1/4 91/1/4
f 89/2/4 90/2/4 92/2/4
f 91/1/4 84/1/4 92/1/4
f 84/2/4 89/2/4 92/2/4
f 85/1/4 86/1/4 93/1/4
f 92/2/4 90/2/4 93/2/4
f 90/2/4 85/2/4 93/2/4
f 93/1/4 86/1/4 94/1/4
f 92/2/4 93/2/4 95/2/4
f 95/2/4 93/2/4 96/2/4
f 97/2/4 98/2/4 99/2/4
f 99/2/4 98/2/4 100/2/4
f 103/1/5 102/1/5 101/1/5
f 104/1/5 102/1/5 103/1/5
f 108/2/5 106/2/5 105/2/5
f 109/2/5 106/2/5 108/2/5
f 111/1/5 108/1/5 107/1/5
f 112/2/5 109/2/5 108/2/5
f 112/1/5 108/1/5 111/1/5
f 113/1/5 110/1/5 109/1/5
f 113/2/5 109/2/5 112/2/5
f 114/1/5 110/1/5 113/1/5
f 115/2/5 112/2/5 111/2/5
f 116/2/5 112/2/5 115/2/5
f 117/2/5 114/2/5 113/2/5
f 118/2/5 114/2/5 117/2/5
f 121/1/5 120/1/5 119/1/5
f 122/1/5 120/1/5 121/1/5
f 125/2/5 124/2/5 123/2/5
f 126/2/5 124/2/5 125/2/5
f 127/1/6 128/1/6 129/1/6
f 129/1/6 128/1/6 130/1/6
f 131/2/6 132/2/6 133/2/6
f 133/2/6 132/2/6 134/2/6
f 135/2/6 136/2/6 138/2/6
f 138/2/6 136/2/6 139/2/6
f 137/1/6 138/1/6 141/1/6
f 138/2/6 139/2/6 142/2/6
f 141/1/6 138/1/6 142/1/6
f 139/1/6 140/1/6 143/1/6
f 142/2/6 139/2/6 143/2/6
f 143/1/6 140/1/6 144/1/6
f 141/2/6 142/2/6 145/2/6
f 145/2/6 142/2/6 146/2/6
f 143/2/6 144/2/6 147/2/6
f 147/2/6 144/2/6 148/2/6
f 149/1/6 150/1/6 151/1/6
f 151/1/6 150/1/6 152/1/6
